<svg width="25" height="26" viewBox="0 0 25 26" fill="none" xmlns="http://www.w3.org/2000/svg">
<path d="M12.4777 0C15.9887 0 18.9504 1.25328 21.3613 3.76066C23.7863 6.28347 25 9.36325 25 13C25 16.6526 23.809 19.6934 21.4277 22.1228C18.898 24.7077 15.9148 26 12.4777 26C9.09922 26 6.16797 24.7227 3.6832 22.1691C1.22812 19.6154 0 16.5596 0 13C0 9.44084 1.22812 6.36106 3.6832 3.76106C6.09414 1.25328 9.025 0 12.4777 0ZM12.5223 2.34488C9.68008 2.34488 7.27695 3.38203 5.3125 5.45553C3.27344 7.62247 2.2543 10.1376 2.2543 13.0004C2.2543 15.8791 3.26602 18.371 5.28945 20.4746C7.31328 22.5798 9.72383 23.6316 12.5215 23.6316C15.3039 23.6316 17.7301 22.5725 19.7984 20.4514C21.7629 18.486 22.7449 16.0022 22.7449 12.9996C22.7449 10.0437 21.7477 7.52944 19.7543 5.45513C17.7605 3.38163 15.3496 2.34488 12.5223 2.34488ZM15.8707 9.77316V15.0889H14.4426V21.4029H10.5582V15.0893H9.13008V9.77316C9.13008 9.54078 9.2082 9.34375 9.36406 9.18125C9.5207 9.01916 9.71055 8.9375 9.9332 8.9375H15.0676C15.2758 8.9375 15.4621 9.01875 15.6254 9.18125C15.7883 9.34375 15.8707 9.54119 15.8707 9.77316ZM10.7586 6.43053C10.7586 5.20853 11.3387 4.59672 12.5 4.59672C13.6613 4.59672 14.241 5.20772 14.241 6.43053C14.241 7.6375 13.6605 8.24119 12.5 8.24119C11.3395 8.24119 10.7586 7.6375 10.7586 6.43053Z" fill="#808080"/>
</svg>
