<svg width="26" height="26" viewBox="0 0 26 26" fill="none" xmlns="http://www.w3.org/2000/svg">
<path d="M12.9768 0C16.6132 0 19.6926 1.26141 22.2158 3.78422C24.7378 6.29159 26 9.36325 26 13C26 16.6376 24.7613 19.6857 22.2848 22.1463C19.6698 24.7154 16.5665 26 12.9768 26C9.46319 26 6.41469 24.7232 3.83053 22.1695C1.27725 19.6162 0 16.5604 0 13.0004C0 9.45669 1.27725 6.38462 3.83053 3.78463C6.35294 1.26141 9.40184 0 12.9768 0ZM13.0232 2.34488C10.0673 2.34488 7.56803 3.38975 5.525 5.47909C3.40438 7.63059 2.34447 10.1376 2.34447 13C2.34447 15.8945 3.39666 18.3857 5.50103 20.475C7.60581 22.5802 10.1128 23.632 13.0223 23.632C15.9161 23.632 18.4393 22.5721 20.5904 20.4518C22.6334 18.471 23.6547 15.9872 23.6547 13C23.6547 10.0291 22.6176 7.52172 20.5445 5.47909C18.486 3.38894 15.9786 2.34488 13.0232 2.34488ZM7.21947 11.1658C7.46688 9.57166 8.10875 8.33747 9.14591 7.46322C10.1827 6.58897 11.4437 6.15184 12.9297 6.15184C14.9719 6.15184 16.5977 6.80997 17.8047 8.12459C19.0117 9.44003 19.6154 11.1272 19.6154 13.1853C19.6154 15.182 18.9885 16.8415 17.7357 18.1643C16.4812 19.487 14.857 20.1492 12.8598 20.1492C11.3896 20.1492 10.1205 19.7084 9.05288 18.826C7.98484 17.9437 7.34297 16.6904 7.12603 15.0654H10.4C10.4772 16.6441 11.429 17.4334 13.2555 17.4334C14.168 17.4334 14.9037 17.0385 15.4607 16.2496C16.0184 15.4607 16.2971 14.4077 16.2971 13.0926C16.2971 11.715 16.0416 10.6669 15.5313 9.94703C15.0203 9.22756 14.2858 8.86762 13.3254 8.86762C11.5915 8.86762 10.6169 9.63341 10.4004 11.1654H11.3523L8.77581 13.7422L6.19897 11.1654L7.21947 11.1658Z" fill="#808080"/>
</svg>
