<svg width="26" height="26" viewBox="0 0 26 26" fill="none" xmlns="http://www.w3.org/2000/svg">
<path d="M12.9762 0C16.6126 0 19.7087 1.26955 22.262 3.80743C23.4841 5.02986 24.4132 6.42698 25.0477 7.99756C25.6819 9.56856 26 11.2358 26 13.0002C26 14.78 25.686 16.4477 25.0599 18.0024C24.4331 19.5576 23.508 20.9315 22.286 22.1231C21.0173 23.3764 19.5779 24.3364 17.9679 25.0018C16.3587 25.6673 14.6947 26 12.977 26C11.2594 26 9.61487 25.6717 8.04388 25.0132C6.47329 24.3559 5.0648 23.404 3.81881 22.1584C2.57282 20.9129 1.62503 19.508 0.975015 17.9447C0.325005 16.3815 0 14.7337 0 13.0002C0 11.2821 0.328661 9.63031 0.98639 8.04388C1.64412 6.45744 2.60004 5.03758 3.85334 3.78387C6.32947 1.26183 9.3703 0 12.9762 0ZM13.0234 2.34491C10.052 2.34491 7.55231 3.38208 5.52468 5.45562C4.50295 6.49279 3.71765 7.65712 3.16839 8.94942C2.61832 10.2417 2.3441 11.5921 2.3441 13.0006C2.3441 14.3937 2.61832 15.7363 3.16839 17.0278C3.71806 18.3209 4.50295 19.4739 5.52468 20.4875C6.54601 21.5015 7.69856 22.2746 8.98395 22.8093C10.2681 23.3431 11.6149 23.61 13.0234 23.61C14.416 23.61 15.7656 23.3398 17.075 22.7979C18.3827 22.2555 19.5616 21.4747 20.6147 20.4534C22.6419 18.4725 23.6551 15.9886 23.6551 13.001C23.6551 11.5616 23.3918 10.1999 22.8657 8.9153C22.3404 7.63071 21.5738 6.48588 20.5688 5.47918C18.4782 3.3898 15.9638 2.34491 13.0234 2.34491ZM12.8604 10.8418L11.1188 11.7473C10.9328 11.361 10.7049 11.0896 10.4343 10.9348C10.1633 10.7804 9.91184 10.7028 9.67946 10.7028C8.5192 10.7028 7.93825 11.4686 7.93825 13.001C7.93825 13.6973 8.08531 14.2539 8.37904 14.6719C8.67317 15.09 9.10664 15.2992 9.67946 15.2992C10.4379 15.2992 10.9718 14.9275 11.2817 14.1848L12.8832 14.9974C12.5428 15.6323 12.0707 16.1312 11.467 16.4948C10.8641 16.8588 10.1983 17.0404 9.47065 17.0404C8.30997 17.0404 7.37315 16.6849 6.66139 15.9724C5.94962 15.2606 5.59374 14.2702 5.59374 13.0014C5.59374 11.7632 5.95369 10.7808 6.67317 10.0532C7.39265 9.32602 8.30185 8.96202 9.40118 8.96202C11.0112 8.9612 12.1637 9.58806 12.8604 10.8418ZM20.3587 10.8418L18.6407 11.7473C18.455 11.361 18.2263 11.0896 17.9557 10.9348C17.6843 10.7804 17.4247 10.7028 17.1781 10.7028C16.0175 10.7028 15.4365 11.4686 15.4365 13.001C15.4365 13.6973 15.584 14.2539 15.8777 14.6719C16.1714 15.09 16.6045 15.2992 17.1781 15.2992C17.9358 15.2992 18.47 14.9275 18.7792 14.1848L20.4042 14.9974C20.0487 15.6323 19.5686 16.1312 18.9657 16.4948C18.362 16.8588 17.7042 17.0404 16.9925 17.0404C15.816 17.0404 14.8763 16.6849 14.1727 15.9724C13.4674 15.2606 13.1156 14.2702 13.1156 13.0014C13.1156 11.7632 13.4751 10.7808 14.1954 10.0532C14.9145 9.32602 15.8237 8.96202 16.9226 8.96202C18.5322 8.9612 19.6782 9.58806 20.3587 10.8418Z" fill="#808080"/>
</svg>
