<?xml version="1.0" encoding="utf-8"?>
<!-- Generator: Adobe Illustrator 26.0.2, SVG Export Plug-In . SVG Version: 6.00 Build 0)  -->
<svg version="1.1" id="Layer_1" xmlns="http://www.w3.org/2000/svg" xmlns:xlink="http://www.w3.org/1999/xlink" x="0px" y="0px"
	 viewBox="0 0 40 40" style="enable-background:new 0 0 40 40;" xml:space="preserve">
<style type="text/css">
	.st0{fill:#FFFFFF;}
</style>
<path class="st0" d="M19,31.5c-0.4,0-0.8-0.1-1.1-0.4c-0.6-0.6-0.6-1.5,0-2.1l8.9-8.9l-8.9-8.9c-0.6-0.6-0.6-1.5,0-2.1
	c0.6-0.6,1.5-0.6,2.1,0l10,10c0.6,0.6,0.6,1.5,0,2.1l-10,10C19.8,31.4,19.4,31.5,19,31.5z"/>
<path class="st0" d="M29,21.5H9c-0.8,0-1.5-0.7-1.5-1.5s0.7-1.5,1.5-1.5h20c0.8,0,1.5,0.7,1.5,1.5S29.8,21.5,29,21.5z"/>
</svg>
