<?xml version="1.0" encoding="utf-8"?>
<!-- Generator: Adobe Illustrator 26.0.2, SVG Export Plug-In . SVG Version: 6.00 Build 0)  -->
<svg version="1.1" id="Layer_1" xmlns="http://www.w3.org/2000/svg" xmlns:xlink="http://www.w3.org/1999/xlink" x="0px" y="0px"
	 viewBox="0 0 21 20" style="enable-background:new 0 0 21 20;" xml:space="preserve">
<style type="text/css">
	.st0{fill:#007880;}
</style>
<path class="st0" d="M1.5,17c-0.6,0-1-0.4-1-1v-6c0-0.6,0.4-1,1-1s1,0.4,1,1v6C2.5,16.6,2.1,17,1.5,17z"/>
<path class="st0" d="M19.5,17c-0.6,0-1-0.4-1-1v-6c0-0.6,0.4-1,1-1s1,0.4,1,1v6C20.5,16.6,20.1,17,19.5,17z"/>
<path class="st0" d="M17.5,20c-1.7,0-3-1.3-3-3v-5c0-1.7,1.3-3,3-3s3,1.3,3,3v5C20.5,18.7,19.2,20,17.5,20z M17.5,11
	c-0.6,0-1,0.4-1,1v5c0,0.6,0.4,1,1,1s1-0.4,1-1v-5C18.5,11.4,18.1,11,17.5,11z"/>
<path class="st0" d="M3.5,20c-1.7,0-3-1.3-3-3v-5c0-1.7,1.3-3,3-3s3,1.3,3,3v5C6.5,18.7,5.2,20,3.5,20z M3.5,11c-0.6,0-1,0.4-1,1v5
	c0,0.6,0.4,1,1,1s1-0.4,1-1v-5C4.5,11.4,4.1,11,3.5,11z"/>
<path class="st0" d="M20.5,10h-2c0-1.1-0.2-2.1-0.6-3.1c-0.4-1-1-1.8-1.7-2.6c-0.7-0.7-1.6-1.3-2.6-1.7c-2-0.8-4.2-0.8-6.1,0
	c-1,0.4-1.8,1-2.6,1.7C4.1,5.1,3.5,6,3.1,6.9c-0.4,1-0.6,2-0.6,3.1h-2c0-1.3,0.3-2.6,0.8-3.8C1.8,5,2.5,3.9,3.4,2.9
	c0.9-0.9,2-1.7,3.2-2.2c2.4-1,5.2-1,7.7,0c1.2,0.5,2.3,1.2,3.2,2.2s1.7,2,2.2,3.2C20.2,7.4,20.5,8.7,20.5,10z"/>
</svg>
