<svg width="50" height="50" viewBox="0 0 50 50" fill="none" xmlns="http://www.w3.org/2000/svg">
<path d="M15.4994 28C15.4994 28 15.1331 31.9484 11.543 34.3388L18.9994 34L15.9994 22L15.4994 28Z" fill="#74BDC2"/>
<path d="M34.5001 28C34.5001 28 34.8664 31.9484 38.4565 34.3388L31.0001 34L34.0001 22L34.5001 28Z" fill="#74BDC2"/>
<circle cx="25" cy="22" r="9" fill="#74BDC2"/>
<circle cx="25" cy="13" r="2" fill="#74BDC2"/>
<circle cx="25" cy="37" r="4" fill="#74BDC2"/>
<path d="M16 22H34L35 36H15L16 22Z" fill="#74BDC2"/>
<rect x="11" y="34" width="28" height="3" rx="1.5" fill="#74BDC2"/>
<rect x="28" y="11" width="18" height="18" rx="9" fill="#E61E26"/>
<path d="M31.84 24V22.572H33.496V18.168H32.068V17.076C32.484 16.996 32.836 16.9 33.124 16.788C33.412 16.676 33.692 16.54 33.964 16.38H35.26V22.572H36.688V24H31.84ZM40.1478 24.144C39.3318 24.144 38.6718 23.804 38.1678 23.124C37.6718 22.444 37.4238 21.456 37.4238 20.16C37.4238 18.864 37.6718 17.888 38.1678 17.232C38.6718 16.568 39.3318 16.236 40.1478 16.236C40.9638 16.236 41.6198 16.568 42.1158 17.232C42.6198 17.888 42.8718 18.864 42.8718 20.16C42.8718 21.456 42.6198 22.444 42.1158 23.124C41.6198 23.804 40.9638 24.144 40.1478 24.144ZM40.1478 22.776C40.3478 22.776 40.5278 22.704 40.6878 22.56C40.8478 22.408 40.9718 22.144 41.0598 21.768C41.1558 21.392 41.2038 20.856 41.2038 20.16C41.2038 19.464 41.1558 18.932 41.0598 18.564C40.9718 18.196 40.8478 17.944 40.6878 17.808C40.5278 17.672 40.3478 17.604 40.1478 17.604C39.9558 17.604 39.7798 17.672 39.6198 17.808C39.4598 17.944 39.3318 18.196 39.2358 18.564C39.1398 18.932 39.0918 19.464 39.0918 20.16C39.0918 20.856 39.1398 21.392 39.2358 21.768C39.3318 22.144 39.4598 22.408 39.6198 22.56C39.7798 22.704 39.9558 22.776 40.1478 22.776Z" fill="white"/>
</svg>
