<?xml version="1.0" encoding="utf-8"?>
<!-- Generator: Adobe Illustrator 26.0.2, SVG Export Plug-In . SVG Version: 6.00 Build 0)  -->
<svg version="1.1" id="Layer_1" xmlns="http://www.w3.org/2000/svg" xmlns:xlink="http://www.w3.org/1999/xlink" x="0px" y="0px"
	 viewBox="0 0 20 23" style="enable-background:new 0 0 20 23;" xml:space="preserve">
<style type="text/css">
	.st0{fill:#007880;}
</style>
<path class="st0" d="M19.5,23h-16c-1.7,0-3-1.3-3-3s1.3-3,3-3h16V23z M3.5,19c-0.6,0-1,0.4-1,1s0.4,1,1,1h14v-2H3.5z"/>
<path class="st0" d="M2.5,20h-2V3c0-1.7,1.3-3,3-3h16v18h-2V2h-14c-0.6,0-1,0.4-1,1V20z"/>
<path class="st0" d="M15.5,12h-10V5h10V12z M7.5,10h6V7h-6V10z"/>
</svg>
