<svg width="37" height="31" viewBox="0 0 37 31" fill="none" xmlns="http://www.w3.org/2000/svg">
<path fill-rule="evenodd" clip-rule="evenodd" d="M33.9348 2.81264C37.685 6.56282 37.685 12.6431 33.9348 16.3932L32.3542 17.9738L32.3709 17.9905L20.9124 29.449C19.7404 30.621 17.8402 30.621 16.6682 29.449L12.4628 25.2436C12.2934 25.0963 12.1279 24.942 11.9667 24.7808C11.8055 24.6196 11.6512 24.4541 11.5038 24.2846L3.61244 16.3932C-0.137737 12.6431 -0.137742 6.56282 3.61243 2.81264C7.36261 -0.937531 13.4428 -0.937532 17.193 2.81264L18.7736 4.39324L20.3542 2.81264C24.1044 -0.937537 30.1846 -0.937536 33.9348 2.81264Z" fill="#85C7CC"/>
</svg>
