<svg width="33" height="28" viewBox="0 0 33 28" fill="none" xmlns="http://www.w3.org/2000/svg">
<mask id="path-1-inside-1_501_125" fill="white">
<path fill-rule="evenodd" clip-rule="evenodd" d="M30.4611 3.01356C33.8466 6.3991 33.8466 11.8882 30.4611 15.2737L29.0342 16.7006L29.0492 16.7156L18.7049 27.06C17.6468 28.118 15.9314 28.118 14.8733 27.06L11.0768 23.2634C10.9238 23.1305 10.7744 22.9912 10.6289 22.8457C10.4834 22.7002 10.3442 22.5508 10.2112 22.3979L3.08701 15.2737C-0.298532 11.8881 -0.298535 6.39911 3.087 3.01357C6.47254 -0.371974 11.9616 -0.371971 15.3471 3.01357L16.774 4.44048L18.201 3.01357C21.5865 -0.371973 27.0755 -0.371975 30.4611 3.01356Z"/>
</mask>
<path d="M30.4611 15.2737L28.3398 13.1524L28.3398 13.1524L30.4611 15.2737ZM30.4611 3.01356L32.5824 0.892245V0.892244L30.4611 3.01356ZM29.0342 16.7006L26.9128 14.5793L24.7915 16.7006L26.9128 18.8219L29.0342 16.7006ZM29.0492 16.7156L31.1705 18.837L33.2918 16.7156L31.1705 14.5943L29.0492 16.7156ZM18.7049 27.06L16.5835 24.9387L18.7049 27.06ZM14.8733 27.06L16.9946 24.9387L14.8733 27.06ZM11.0768 23.2634L13.1981 21.1421L13.1242 21.0682L13.0453 20.9997L11.0768 23.2634ZM10.6289 22.8457L8.50762 24.967L8.50763 24.967L10.6289 22.8457ZM10.2112 22.3979L12.475 20.4293L12.4064 20.3505L12.3325 20.2766L10.2112 22.3979ZM3.08701 15.2737L5.20833 13.1524H5.20833L3.08701 15.2737ZM3.087 3.01357L5.20832 5.13489L3.087 3.01357ZM15.3471 3.01357L13.2258 5.13489V5.13489L15.3471 3.01357ZM16.774 4.44048L14.6527 6.5618L16.774 8.68312L18.8954 6.5618L16.774 4.44048ZM18.201 3.01357L20.3223 5.13489L18.201 3.01357ZM32.5824 17.395C37.1395 12.8379 37.1395 5.44936 32.5824 0.892245L28.3398 5.13488C30.5537 7.34885 30.5537 10.9384 28.3398 13.1524L32.5824 17.395ZM31.1555 18.8219L32.5824 17.395L28.3398 13.1524L26.9128 14.5793L31.1555 18.8219ZM26.9128 18.8219L26.9279 18.837L31.1705 14.5943L31.1555 14.5793L26.9128 18.8219ZM26.9279 14.5943L16.5835 24.9387L20.8262 29.1813L31.1705 18.837L26.9279 14.5943ZM16.5835 24.9387C16.6971 24.8251 16.8811 24.8251 16.9946 24.9387L12.752 29.1813C14.9816 31.4109 18.5966 31.4109 20.8262 29.1813L16.5835 24.9387ZM16.9946 24.9387L13.1981 21.1421L8.95545 25.3848L12.752 29.1813L16.9946 24.9387ZM8.50763 24.967C8.70241 25.1618 8.90274 25.3486 9.10819 25.5272L13.0453 20.9997C12.9449 20.9123 12.8465 20.8206 12.7503 20.7244L8.50763 24.967ZM7.94743 24.3665C8.12609 24.5719 8.31285 24.7722 8.50762 24.967L12.7503 20.7244C12.654 20.6282 12.5623 20.5297 12.475 20.4293L7.94743 24.3665ZM12.3325 20.2766L5.20833 13.1524L0.965688 17.395L8.08989 24.5192L12.3325 20.2766ZM5.20833 13.1524C2.99436 10.9384 2.99436 7.34885 5.20832 5.13489L0.965685 0.892245C-3.59143 5.44936 -3.59142 12.8379 0.965688 17.395L5.20833 13.1524ZM5.20832 5.13489C7.42229 2.92092 11.0118 2.92092 13.2258 5.13489L17.4685 0.892247C12.9113 -3.66486 5.5228 -3.66487 0.965685 0.892245L5.20832 5.13489ZM13.2258 5.13489L14.6527 6.5618L18.8954 2.31916L17.4685 0.892247L13.2258 5.13489ZM16.0796 0.892247L14.6527 2.31916L18.8954 6.5618L20.3223 5.13489L16.0796 0.892247ZM32.5824 0.892244C28.0253 -3.66487 20.6368 -3.66487 16.0796 0.892247L20.3223 5.13489C22.5362 2.92092 26.1258 2.92092 28.3398 5.13488L32.5824 0.892244Z" fill="#FF4C54" mask="url(#path-1-inside-1_501_125)"/>
</svg>
