<svg width="33" height="25" viewBox="0 0 33 25" fill="none" xmlns="http://www.w3.org/2000/svg">
<path d="M33 7.18182C33 5.18182 32.2893 3.48485 30.868 2.09091C29.4466 0.696967 27.7163 0 25.677 0C23.6376 0 21.8764 0.696967 20.3933 2.09091C18.9719 3.48485 18.2612 5.18182 18.2612 7.18182C18.2612 9.12121 18.7865 10.8182 19.8371 12.2727C20.8876 13.6667 22.4017 14.3636 24.3792 14.3636C23.7612 16.6061 22.3708 19.4242 20.2079 22.8182C20.0843 22.9394 20.0225 23.0909 20.0225 23.2727C20.0225 23.4545 20.2079 23.7273 20.5787 24.0909C21.0112 24.5151 21.5056 24.7273 22.0618 24.7273H22.1545C22.7725 24.7273 23.3596 24.4545 23.9157 23.9091C25.8933 22.0909 28.3034 19 31.1461 14.6364C32.3202 12.7576 32.9382 10.3333 33 7.36364V7.18182ZM14.7388 7.45454C14.7388 5.45454 14.0281 3.75758 12.6067 2.36364C11.1854 0.969699 9.45506 0.272727 7.41573 0.272727C5.37641 0.272727 3.61517 0.969699 2.13202 2.36364C0.710674 3.75758 0 5.42424 0 7.36364C0 9.36364 0.525281 11.0606 1.57584 12.4545C2.6264 13.9091 4.14045 14.6364 6.11798 14.6364C5.5 16.8788 4.10955 19.697 1.94663 23.0909C1.82303 23.2121 1.76124 23.3636 1.76124 23.5454C1.76124 23.7273 1.94663 24.0303 2.31742 24.4545C2.75 24.8182 3.24438 25 3.80056 25H3.89326C4.51124 25 5.09831 24.7273 5.65449 24.1818C7.63202 22.3636 10.0421 19.2727 12.8848 14.9091C14.059 13.0303 14.677 10.6061 14.7388 7.63636V7.45454Z" fill="white"/>
</svg>
