<?xml version="1.0" encoding="utf-8"?>
<!-- Generator: Adobe Illustrator 26.0.2, SVG Export Plug-In . SVG Version: 6.00 Build 0)  -->
<svg version="1.1" id="Layer_1" xmlns="http://www.w3.org/2000/svg" xmlns:xlink="http://www.w3.org/1999/xlink" x="0px" y="0px"
	 viewBox="0 0 28 28" style="enable-background:new 0 0 28 28;" xml:space="preserve">
<style type="text/css">
	.st0{fill:#007880;}
</style>
<path class="st0" d="M12,24C5.4,24,0,18.6,0,12C0,5.4,5.4,0,12,0c6.6,0,12,5.4,12,12C24,18.6,18.6,24,12,24z M12,3c-5,0-9,4-9,9
	c0,5,4,9,9,9c5,0,9-4,9-9C21,7,17,3,12,3z"/>
<path class="st0" d="M26,27.5c-0.4,0-0.8-0.1-1.1-0.4l-6-6c-0.6-0.6-0.6-1.5,0-2.1s1.5-0.6,2.1,0l6,6c0.6,0.6,0.6,1.5,0,2.1
	C26.8,27.4,26.4,27.5,26,27.5z"/>
</svg>
