<?xml version="1.0" encoding="UTF-8" standalone="no"?>
<svg
   width="28"
   height="33"
   viewBox="0 0 28 33"
   fill="none"
   version="1.1"
   id="svg17"
   sodipodi:docname="user-staff.svg"
   inkscape:version="1.1.2 (0a00cf5339, 2022-02-04)"
   xmlns:inkscape="http://www.inkscape.org/namespaces/inkscape"
   xmlns:sodipodi="http://sodipodi.sourceforge.net/DTD/sodipodi-0.dtd"
   xmlns="http://www.w3.org/2000/svg"
   xmlns:svg="http://www.w3.org/2000/svg">
  <defs
     id="defs21" />
  <sodipodi:namedview
     id="namedview19"
     pagecolor="#ffffff"
     bordercolor="#666666"
     borderopacity="1.0"
     inkscape:pageshadow="2"
     inkscape:pageopacity="0.0"
     inkscape:pagecheckerboard="0"
     showgrid="false"
     inkscape:zoom="37.118972"
     inkscape:cx="15.975658"
     inkscape:cy="9.2540278"
     inkscape:window-width="1920"
     inkscape:window-height="1003"
     inkscape:window-x="0"
     inkscape:window-y="40"
     inkscape:window-maximized="1"
     inkscape:current-layer="g15" />
  <mask
     x="0"
     y="0"
     width="28"
     height="33"
     id="mask0_1809_390"
     style="mask-type:alpha"
     maskUnits="userSpaceOnUse">
    <rect
       width="28"
       height="33"
       fill="#D9D9D9"
       id="rect2" />
  </mask>
  <g
     mask="url(#mask0_1809_390)"
     id="g15">
    <rect
       x="5"
       y="3"
       width="18"
       height="18"
       rx="9"
       fill="#74BDC2"
       id="rect5" />
    <rect
       x="5"
       y="20"
       width="18"
       height="23"
       rx="9"
       fill="#74BDC2"
       id="rect7" />
    <path
       d="M14 31.1304C14 31.1304 8.25373 25.8278 0 26.0043V36.6559C7 36.6559 11.7015 39.1761 14 40V31.1304Z"
       fill="#FBC40F"
       id="path9" />
    <path
       d="M14 31.1304C14 31.1304 19.7463 25.8278 28 26.0043V36.6559C21 36.6559 16.2985 39.1761 14 40V31.1304Z"
       fill="#E59717"
       id="path11" />
    <path
       d="M 23.801338,11.979863 4.3595814,11.964957 C 4.1133168,11.109508 4.9729499,10.404912 4.9892284,9.8806756 5.0838432,6.8336782 8.3219759,3.638928 11.258254,3.0650433 c 0.431771,-0.084388 -0.373,-1.8984423 3.03031,-1.8928315 3.689802,0.00608 2.661897,1.681716 3.130073,1.8273248 2.479045,0.7710161 5.979222,4.1103072 5.998193,7.2197644 0.0041,0.669689 0.414774,0.219155 0.384508,1.760562 z"
       fill="#fbc40f"
       id="path13"
       sodipodi:nodetypes="ccsssssc" />
  </g>
</svg>
