<svg width="181" height="160" viewBox="0 0 181 160" fill="none" xmlns="http://www.w3.org/2000/svg">
<g opacity="0.4">
<path d="M4.41838 79.8373L1.12752 56.064L36.7875 51.1277L40.0783 74.901L4.41838 79.8373Z" fill="#E1F1F2" stroke="#74BDC2" stroke-width="2" stroke-linejoin="round"/>
<path d="M4.77148 79.4165L19.9463 60.7383L39.6243 74.592" stroke="#74BDC2" stroke-width="2"/>
<path d="M20.8771 67.4636L1.12744 56.064L36.7874 51.1277L20.8771 67.4636Z" fill="#E1F1F2" stroke="#74BDC2" stroke-width="2" stroke-linejoin="round"/>
</g>
<g opacity="0.4">
<path d="M137.837 34.3287L144.368 11.2343L179.01 21.0307L172.479 44.125L137.837 34.3287Z" fill="#E1F1F2" stroke="#74BDC2" stroke-width="2" stroke-linejoin="round"/>
<path d="M138.33 34.085L159.727 23.0709L172.187 43.6596" stroke="#74BDC2" stroke-width="2"/>
<path d="M157.879 29.6042L144.368 11.2344L179.01 21.0308L157.879 29.6042Z" fill="#E1F1F2" stroke="#74BDC2" stroke-width="2" stroke-linejoin="round"/>
</g>
<g filter="url(#filter0_d_2101_8796)">
<path d="M90 95.9524V20C88.5999 20 87.632 20.6014 85.4781 22.4495L32 68.4196V90.256C32 93.1042 34.1219 95.9524 36.2439 95.9524H90Z" fill="#648A15"/>
<path d="M90 95.9524V20C91.4001 20 92.368 20.6014 94.5219 22.4495L148 68.4196V90.256C148 93.1042 145.878 95.9524 143.756 95.9524H90Z" fill="#648A15"/>
<rect x="50" y="146" width="112" height="79" transform="rotate(-90 50 146)" fill="white"/>
<rect width="11.398" height="11.398" transform="matrix(0.854263 -0.519841 0.854263 0.519841 60 60)" fill="#FFA500"/>
<path d="M50 55L60 60L50 66L50 55Z" fill="#FFA500"/>
<rect width="11.5421" height="11.5421" transform="matrix(0.854263 -0.519841 0.854263 0.519841 79.439 60)" fill="#FFA500"/>
<rect width="11.5421" height="11.5421" transform="matrix(0.854263 -0.519841 0.854263 0.519841 99.123 60)" fill="#FFA500"/>
<path d="M119 60L129 55V65L119 60Z" fill="#FFA500"/>
<rect x="50" y="60" width="26" height="79" transform="rotate(-90 50 60)" fill="#FFA500"/>
<path d="M32 128.483V68.4192C39.5176 64.7111 53.1542 68.9583 60.4035 76.4479L80.627 96.4232L78.1786 128.483H32Z" fill="#92BD39"/>
<path d="M148 129.095V68.3315C140.528 64.5801 126.973 68.8768 119.768 76.4537L99.6667 96.6618L102.1 129.095H148Z" fill="#92BD39"/>
<g style="mix-blend-mode:multiply" opacity="0.27">
<path d="M79.6429 95.9524L32 120.119V129.095L79.6429 95.9524Z" fill="#648A15"/>
</g>
<g style="mix-blend-mode:multiply" opacity="0.27">
<path d="M101.048 96.6429L148 120.119V129.095L101.048 96.6429Z" fill="#648A15"/>
</g>
<path d="M90 146V91C88.5999 91 87.632 91.4355 85.4781 92.7738L32 126.062V141.875C32 143.938 34.1219 146 36.2439 146H90Z" fill="#AFD169"/>
<path d="M90 146V91C91.4001 91 92.368 91.4355 94.5219 92.7738L148 126.062V141.875C148 143.938 145.878 146 143.756 146H90Z" fill="#AFD169"/>
</g>
<circle cx="50.603" cy="8" r="7" stroke="#92BD39" stroke-width="2"/>
<circle cx="166" cy="145" r="5" stroke="#92BD39" stroke-width="2"/>
<defs>
<filter id="filter0_d_2101_8796" x="24" y="14" width="136" height="146" filterUnits="userSpaceOnUse" color-interpolation-filters="sRGB">
<feFlood flood-opacity="0" result="BackgroundImageFix"/>
<feColorMatrix in="SourceAlpha" type="matrix" values="0 0 0 0 0 0 0 0 0 0 0 0 0 0 0 0 0 0 127 0" result="hardAlpha"/>
<feOffset dx="2" dy="4"/>
<feGaussianBlur stdDeviation="5"/>
<feColorMatrix type="matrix" values="0 0 0 0 0.215686 0 0 0 0 0.666667 0 0 0 0 0.611765 0 0 0 0.3 0"/>
<feBlend mode="multiply" in2="BackgroundImageFix" result="effect1_dropShadow_2101_8796"/>
<feBlend mode="normal" in="SourceGraphic" in2="effect1_dropShadow_2101_8796" result="shape"/>
</filter>
</defs>
</svg>
