<svg width="170" height="408" viewBox="0 0 170 408" fill="none" xmlns="http://www.w3.org/2000/svg">
<path d="M150 0.106689L130 25.6067L150 51.1067L170 25.6067L150 0.106689Z" fill="white"/>
<path d="M150 51.1067L130 76.6067L150 102.107L170 76.6067L150 51.1067Z" fill="white"/>
<path d="M150 102.107L130 127.107L150 152.107L170 127.107L150 102.107Z" fill="white"/>
<path d="M150 152.107L130 177.607L150 203.107L170 177.607L150 152.107Z" fill="white"/>
<path d="M150 203.107L130 229.107L150 255.107L170 229.107L150 203.107Z" fill="white"/>
<path d="M150 255.107L130 280.607L150 306.107L170 280.607L150 255.107Z" fill="white"/>
<path d="M150 306.107L130 331.107L150 356.107L170 331.107L150 306.107Z" fill="white"/>
<path d="M150 356.107L130 381.607L150 407.107L170 381.607L150 356.107Z" fill="white"/>
<rect width="150" height="407" transform="matrix(-1 0 0 1 150 0.106689)" fill="white"/>
</svg>
