<svg width="170" height="408" viewBox="0 0 170 408" fill="none" xmlns="http://www.w3.org/2000/svg">
<path d="M20 0.106689L40 25.6067L20 51.1067L0 25.6067L20 0.106689Z" fill="white"/>
<path d="M20 51.1067L40 76.6067L20 102.107L0 76.6067L20 51.1067Z" fill="white"/>
<path d="M20 102.107L40 127.107L20 152.107L0 127.107L20 102.107Z" fill="white"/>
<path d="M20 152.107L40 177.607L20 203.107L0 177.607L20 152.107Z" fill="white"/>
<path d="M20 203.107L40 229.107L20 255.107L0 229.107L20 203.107Z" fill="white"/>
<path d="M20 255.107L40 280.607L20 306.107L0 280.607L20 255.107Z" fill="white"/>
<path d="M20 306.107L40 331.107L20 356.107L0 331.107L20 306.107Z" fill="white"/>
<path d="M20 356.107L40 381.607L20 407.107L0 381.607L20 356.107Z" fill="white"/>
<rect x="20" y="0.106689" width="150" height="407" fill="white"/>
</svg>
