<svg width="44" height="44" viewBox="0 0 44 44" fill="none" xmlns="http://www.w3.org/2000/svg">
<path d="M36.5042 24.9781C36.8253 24.041 37 23.0357 37 21.9899C37 20.944 36.8253 19.9387 36.5042 19.0016L33.0635 18.3207C32.8839 17.7822 32.6659 17.2612 32.4131 16.7607L34.362 13.8501C33.9265 12.9602 33.3391 12.1261 32.5995 11.3865C31.86 10.6469 31.0258 10.0595 30.1359 9.62404L27.2165 11.5787C26.7166 11.3281 26.1964 11.112 25.6587 10.9343L24.9783 7.49607C24.041 7.17468 23.036 7 21.9899 7C20.9437 7 19.9387 7.17468 19.0016 7.4958L18.3213 10.934C17.7805 11.1128 17.2573 11.3303 16.7547 11.5828L13.8501 9.63803C12.9602 10.0735 12.1261 10.6609 11.3865 11.4005C10.6469 12.14 10.0595 12.9742 9.62404 13.8641L11.5655 16.7634C11.3094 17.271 11.0889 17.7997 10.9082 18.3463L7.49634 19.0214C7.17468 19.959 7 20.964 7 22.0101C7 23.0563 7.17468 24.0613 7.4958 24.9984L10.9033 25.6727C11.0854 26.2247 11.3072 26.7586 11.5661 27.2708L9.6383 30.1499C10.0738 31.0398 10.6612 31.8739 11.4007 32.6135C12.1403 33.3531 12.9745 33.9405 13.8644 34.376L16.7467 32.446C17.2606 32.7048 17.7962 32.9267 18.3498 33.1085L19.0219 36.5042C19.959 36.8253 20.9643 37 22.0101 37C23.056 37 24.0613 36.8253 24.9984 36.5042L25.6732 33.0942C26.223 32.9116 26.7548 32.6889 27.2651 32.4301L30.1502 34.362C31.04 33.9265 31.8742 33.3391 32.6138 32.5995C33.3534 31.86 33.9408 31.0258 34.3762 30.1359L32.4328 27.2335C32.6862 26.7273 32.9037 26.2003 33.0825 25.6557L36.5042 24.9783V24.9781ZM21.9899 27.4628C18.9819 27.4628 16.5435 25.0244 16.5435 22.0165C16.5435 19.0085 18.9819 16.5701 21.9899 16.5701C24.9978 16.5701 27.4362 19.0085 27.4362 22.0165C27.4362 25.0244 24.9978 27.4628 21.9899 27.4628Z" fill="#007880"/>
</svg>
