<?xml version="1.0" encoding="UTF-8" standalone="no"?>
<!-- Created with Inkscape (http://www.inkscape.org/) -->

<svg
   xmlns:dc="http://purl.org/dc/elements/1.1/"
   xmlns:cc="http://creativecommons.org/ns#"
   xmlns:rdf="http://www.w3.org/1999/02/22-rdf-syntax-ns#"
   xmlns:svg="http://www.w3.org/2000/svg"
   xmlns="http://www.w3.org/2000/svg"
   version="1.1"
   width="27"
   height="27"
   id="svg6088">
  <defs
     id="defs6090" />
  <metadata
     id="metadata6093">
    <rdf:RDF>
      <cc:Work
         rdf:about="">
        <dc:format>image/svg+xml</dc:format>
        <dc:type
           rdf:resource="http://purl.org/dc/dcmitype/StillImage" />
        <dc:title></dc:title>
      </cc:Work>
    </rdf:RDF>
  </metadata>
  <g
     transform="translate(-366.81409,-521.12423)"
     id="layer1">
    <path
       d="m 380.29848,521.12423 c -7.46076,0 -13.48439,6.0339 -13.48439,13.4844 0,7.4505 6.02363,13.5156 13.48439,13.5156 7.46077,0 13.51561,-6.0651 13.51561,-13.5156 0,-7.4505 -6.05484,-13.4844 -13.51561,-13.4844 z m 0.59307,9.489 2.15375,0 0,0.9989 -1.87283,0 c -0.48766,0 -0.99871,0.5039 -1.1237,0.9988 l 2.77804,0 0,1.0301 -2.80925,0 0,4.963 -1.1237,0 0,-4.963 -1.31099,0 0,-1.0301 1.31099,0 c 0,-0.9454 1.05229,-1.9977 1.99769,-1.9977 z"
       id="path3774"
       style="fill:#281d1c;fill-opacity:1;stroke:none" />
  </g>
</svg>
