<?xml version="1.0" encoding="UTF-8" standalone="no"?>
<!-- Created with Inkscape (http://www.inkscape.org/) -->

<svg
   xmlns:dc="http://purl.org/dc/elements/1.1/"
   xmlns:cc="http://creativecommons.org/ns#"
   xmlns:rdf="http://www.w3.org/1999/02/22-rdf-syntax-ns#"
   xmlns:svg="http://www.w3.org/2000/svg"
   xmlns="http://www.w3.org/2000/svg"
   version="1.1"
   width="27"
   height="27"
   id="svg6088">
  <defs
     id="defs6090" />
  <metadata
     id="metadata6093">
    <rdf:RDF>
      <cc:Work
         rdf:about="">
        <dc:format>image/svg+xml</dc:format>
        <dc:type
           rdf:resource="http://purl.org/dc/dcmitype/StillImage" />
        <dc:title></dc:title>
      </cc:Work>
    </rdf:RDF>
  </metadata>
  <g
     transform="translate(-361.5,-518.86218)"
     id="layer1">
    <path
       d="m 375.01561,518.86218 c -7.46077,0 -13.51561,6.0409 -13.51561,13.5 0,7.4591 6.05484,13.5 13.51561,13.5 7.46077,0 13.48439,-6.0409 13.48439,-13.5 0,-7.4591 -6.02362,-13.5 -13.48439,-13.5 z m 0.78035,9.3437 0.93641,0 0,4.9063 2.80925,-2.5625 1.18613,0 -3.02774,2.7813 3.1526,3.1875 -1.21734,0 -2.9029,-2.9063 0,2.9063 -0.93641,0 0,-8.3126 z m -3.87052,2.1876 c 0.6577,0 1.16089,0.2286 1.49826,0.6562 0.33736,0.424 0.49942,1.0484 0.49943,1.875 l 0,3.5938 -0.93642,0 0,-3.5626 c 0,-0.5665 -0.10086,-0.9997 -0.31214,-1.2812 -0.21128,-0.2815 -0.51385,-0.4375 -0.93642,-0.4375 -0.50776,0 -0.92428,0.1928 -1.21734,0.5313 -0.29307,0.3385 -0.43699,0.7906 -0.43699,1.375 l 0,3.375 -0.93642,0 0,-5.9688 0.93642,0 0,0.9063 c 0.22491,-0.3599 0.47706,-0.6031 0.78035,-0.7813 0.30669,-0.1781 0.66256,-0.2812 1.06127,-0.2812 z"
       id="path3781"
       style="fill:#281d1c;fill-opacity:1;stroke:none" />
  </g>
</svg>
