<?xml version="1.0" encoding="UTF-8" standalone="no"?>
<!-- Generator: Adobe Illustrator 12.0.1, SVG Export Plug-In . SVG Version: 6.00 Build 51448)  -->

<svg
   version="1.1"
   id="Layer_1"
   width="130.35504"
   height="130.36163"
   viewBox="0 0 130.35504 130.36164"
   overflow="visible"
   enable-background="new 0 0 541.021 364.465"
   xml:space="preserve"
   inkscape:version="1.2.2 (b0a8486541, 2022-12-01)"
   sodipodi:docname="favicon.svg"
   style="overflow:visible"
   xmlns:inkscape="http://www.inkscape.org/namespaces/inkscape"
   xmlns:sodipodi="http://sodipodi.sourceforge.net/DTD/sodipodi-0.dtd"
   xmlns="http://www.w3.org/2000/svg"
   xmlns:svg="http://www.w3.org/2000/svg"
   xmlns:rdf="http://www.w3.org/1999/02/22-rdf-syntax-ns#"
   xmlns:cc="http://creativecommons.org/ns#"
   xmlns:dc="http://purl.org/dc/elements/1.1/"><metadata
   id="metadata181"><rdf:RDF><cc:Work
       rdf:about=""><dc:format>image/svg+xml</dc:format><dc:type
         rdf:resource="http://purl.org/dc/dcmitype/StillImage" /></cc:Work></rdf:RDF></metadata><defs
   id="defs179">
	<foreignObject
   id="foreignObject5"
   height="1"
   width="1"
   y="0"
   x="0"
   requiredExtensions="http://ns.adobe.com/AdobeIllustrator/10.0/">
		
	</foreignObject>
	

		
		
		
		
		
		
		
		
		
		
		
		
		
		
		
		
		
		
	</defs><sodipodi:namedview
   pagecolor="#ffffff"
   bordercolor="#666666"
   borderopacity="1"
   objecttolerance="10"
   gridtolerance="10"
   guidetolerance="10"
   inkscape:pageopacity="0"
   inkscape:pageshadow="2"
   inkscape:window-width="1920"
   inkscape:window-height="1129"
   id="namedview177"
   showgrid="false"
   fit-margin-top="0"
   fit-margin-left="0"
   fit-margin-right="0"
   fit-margin-bottom="0"
   inkscape:zoom="6.4182511"
   inkscape:cx="40.976895"
   inkscape:cy="68.320792"
   inkscape:window-x="0"
   inkscape:window-y="32"
   inkscape:window-maximized="1"
   inkscape:current-layer="Layer_1"
   inkscape:showpageshadow="2"
   inkscape:pagecheckerboard="0"
   inkscape:deskcolor="#d1d1d1" />
<rect
   style="fill:#ffffff;stroke-width:6.56219"
   id="rect420"
   width="130.355"
   height="130.362"
   x="0"
   y="-2.3678889e-07" /><g
   transform="translate(-45.962818,4.5124199e-4)"
   id="g9">
			<g
   id="g11">
				<path
   style="fill:#ecbe00"
   inkscape:connector-curvature="0"
   id="path13"
   d="m 161.889,40.548 c -4.561,1.024 -8.983,3.101 -13.466,4.375 -5.697,1.618 -11.178,3.993 -16.629,6.283 -4.439,1.865 -17.03,6.779 -12.194,14.136 3.222,4.901 12.195,2.042 16.64,1.055 4.9,-1.089 9.723,-2.889 14.542,-4.305 4.377,-1.287 9.529,-4.458 14.232,-3.914 3.419,0.395 3.915,-4.949 0.503,-5.307 -5.48,-0.572 -11.253,2.692 -16.245,4.491 -6.785,2.446 -14.014,4.673 -21.16,5.683 -1.042,0.147 -2.071,0.161 -3.119,0.104 -3.35,-0.183 0.713,-3.859 1.885,-4.496 3.885,-2.11 8.247,-3.601 12.353,-5.222 4.493,-1.774 8.997,-3.283 13.649,-4.587 3.897,-1.093 7.652,-3.055 11.639,-3.676 1.181,-0.185 1.86,-1.144 2.069,-2.241 1.203,-6.314 3.686,-12.275 5.17,-18.521 1.491,-6.269 2.491,-12.617 4.43,-18.777 0.581,-1.846 -0.863,-3.696 -2.83,-3.391 -3.959,0.614 -7.776,2.038 -11.705,2.876 -3.609,0.77 -7.204,1.568 -10.717,2.709 -3.871,1.258 -7.667,2.705 -11.464,4.167 -2.438,0.938 -5.848,3.382 -8.47,3.173 -0.94,-0.075 -2.122,0.495 -2.369,1.488 -1.516,6.081 -4.167,11.729 -6.375,17.572 -2.128,5.629 -4.853,11.899 -5.779,17.844 -0.323,2.069 3.008,2.839 3.583,0.818 v 0 c 3.235,-11.361 9.237,-21.891 12.492,-33.247 l 0.048,0.012 c 1.496,-0.249 2.914,-0.869 4.334,-1.493 3.652,-1.604 7.38,-2.975 11.138,-4.32 4.176,-1.496 8.413,-2.592 12.75,-3.495 3.125,-0.651 6.249,-1.587 9.382,-2.312 l -0.009,0.071 c -1.159,4.454 -2.013,8.979 -2.962,13.488 -1.353,6.43 -3.815,12.539 -5.26,18.94 z" />
			</g>
			<g
   id="g15">
				<path
   style="fill:#9bbb2b"
   inkscape:connector-curvature="0"
   id="path17"
   d="M 65.606,43.706 C 65.355,42.216 64.736,40.801 64.115,39.385 62.512,35.734 61.14,32.007 59.794,28.25 58.296,24.072 57.202,19.837 56.298,15.499 55.651,12.387 54.72,9.276 53.996,6.155 53.994,6.144 54.068,6.1 54.098,6.134 c 4.44,1.156 8.951,2.008 13.446,2.952 6.433,1.352 12.542,3.819 18.946,5.263 0,0 3.104,9.021 4.391,13.551 1.618,5.698 3.993,11.18 6.284,16.633 1.865,4.438 6.777,17.027 14.134,12.191 4.9,-3.221 2.041,-12.196 1.056,-16.642 -1.086,-4.9 -2.891,-9.722 -4.305,-14.541 -1.285,-4.379 -4.458,-9.528 -3.915,-14.233 0.395,-3.419 -4.949,-3.914 -5.306,-0.502 -0.573,5.481 2.693,11.251 4.492,16.245 2.445,6.788 4.668,14.013 5.68,21.16 0.148,1.043 0.161,2.071 0.104,3.119 -0.182,3.347 -3.859,-0.711 -4.496,-1.884 -2.108,-3.887 -3.6,-8.246 -5.221,-12.353 C 97.614,32.6 96.105,28.094 94.801,23.441 93.708,19.543 91.742,15.791 91.121,11.803 90.937,10.621 89.978,9.943 88.88,9.734 82.565,8.534 76.604,6.049 70.36,4.561 64.095,3.068 57.748,2.075 51.59,0.13 c -1.847,-0.583 -3.694,0.864 -3.391,2.83 0.61,3.96 2.035,7.778 2.872,11.709 0.769,3.608 1.565,7.203 2.708,10.716 1.258,3.871 2.707,7.668 4.17,11.466 0.938,2.436 3.383,5.816 3.172,8.468 -0.075,0.94 0.495,2.122 1.489,2.369 6.081,1.517 11.728,4.168 17.57,6.377 5.63,2.13 11.9,4.854 17.845,5.782 2.069,0.323 2.838,-3.008 0.818,-3.584 v 0 C 87.489,53.024 76.962,47.028 65.609,43.771 Z" />
			</g>
			<g
   id="g19">
				<path
   style="fill:#bf001a"
   inkscape:connector-curvature="0"
   id="path21"
   d="m 89.662,110.716 c -1.49,0.252 -2.903,0.869 -4.318,1.49 -3.653,1.604 -7.38,2.976 -11.137,4.321 -4.178,1.497 -8.412,2.594 -12.751,3.495 -3.112,0.646 -6.22,1.576 -9.339,2.3 L 52.08,122.27 c 1.161,-4.455 2.015,-8.983 2.966,-13.494 1.345,-6.381 3.778,-12.446 5.226,-18.796 0.015,-0.063 0.029,-0.127 0.043,-0.19 l 0.052,0.032 c 4.57,-1.021 9,-3.105 13.491,-4.38 5.699,-1.617 11.179,-3.994 16.631,-6.286 4.438,-1.865 17.027,-6.78 12.193,-14.135 -3.22,-4.898 -12.198,-2.037 -16.641,-1.053 -4.901,1.086 -9.722,2.891 -14.542,4.303 -4.38,1.283 -9.522,4.454 -14.227,3.917 -3.42,-0.39 -3.916,4.954 -0.503,5.307 5.484,0.564 11.243,-2.699 16.24,-4.494 6.792,-2.44 14.012,-4.668 21.162,-5.679 1.042,-0.147 2.071,-0.161 3.12,-0.104 3.347,0.181 -0.717,3.856 -1.888,4.491 -3.886,2.109 -8.244,3.603 -12.349,5.225 -4.494,1.775 -8.999,3.283 -13.652,4.586 -3.898,1.092 -7.651,3.059 -11.639,3.677 -1.181,0.184 -1.86,1.144 -2.069,2.241 -1.202,6.314 -3.686,12.274 -5.168,18.521 -1.488,6.269 -2.493,12.617 -4.433,18.775 -0.582,1.846 0.863,3.695 2.83,3.391 3.96,-0.613 7.776,-2.038 11.707,-2.874 3.608,-0.769 7.203,-1.563 10.714,-2.706 3.873,-1.26 7.67,-2.708 11.47,-4.171 2.438,-0.938 5.813,-3.382 8.466,-3.174 0.941,0.074 2.122,-0.494 2.37,-1.488 1.516,-6.08 4.167,-11.728 6.375,-17.569 2.128,-5.629 4.855,-11.899 5.779,-17.844 0.322,-2.068 -3.009,-2.839 -3.583,-0.818 v 0 C 98.992,88.832 92.996,99.35 89.739,110.694 Z" />
			</g>
			<g
   id="g23">
				<path
   style="fill:#3e626f"
   inkscape:connector-curvature="0"
   id="path25"
   d="m 156.67,86.647 c 0.251,1.495 0.87,2.913 1.493,4.334 1.603,3.652 2.974,7.379 4.322,11.135 1.498,4.178 2.593,8.412 3.496,12.75 0.651,3.131 1.589,6.26 2.314,9.399 l 0.083,0.016 c -4.503,-1.182 -9.081,-2.045 -13.644,-3.002 -6.425,-1.349 -12.528,-3.812 -18.924,-5.257 l -0.047,-0.134 c -1.024,-4.547 -3.097,-8.953 -4.364,-13.421 -1.618,-5.698 -3.992,-11.179 -6.284,-16.631 -1.866,-4.439 -6.777,-17.028 -14.135,-12.192 -4.897,3.218 -2.04,12.197 -1.055,16.639 1.086,4.9 2.889,9.723 4.304,14.542 1.285,4.376 4.459,9.526 3.917,14.229 -0.395,3.419 4.949,3.915 5.306,0.502 0.572,-5.479 -2.696,-11.249 -4.493,-16.241 -2.443,-6.789 -4.668,-14.011 -5.677,-21.158 -0.147,-1.043 -0.161,-2.071 -0.104,-3.12 0.181,-3.346 3.856,0.711 4.492,1.884 2.107,3.89 3.602,8.247 5.224,12.354 1.774,4.493 3.281,8.997 4.584,13.649 1.091,3.897 3.06,7.65 3.676,11.638 0.183,1.182 1.144,1.861 2.241,2.069 6.316,1.2 12.277,3.686 18.522,5.172 6.268,1.491 12.615,2.487 18.774,4.428 1.846,0.582 3.695,-0.863 3.391,-2.83 -0.613,-3.959 -2.037,-7.775 -2.873,-11.706 -0.768,-3.608 -1.564,-7.205 -2.707,-10.718 -1.259,-3.87 -2.708,-7.665 -4.171,-11.461 -0.939,-2.438 -3.381,-5.817 -3.173,-8.471 0.074,-0.94 -0.495,-2.122 -1.489,-2.369 -6.08,-1.515 -11.727,-4.165 -17.568,-6.375 -5.63,-2.131 -11.9,-4.852 -17.846,-5.78 -2.069,-0.323 -2.838,3.008 -0.818,3.584 v 0 c 11.358,3.239 21.888,9.238 33.245,12.492 z" />
			</g>
		</g>

</svg>
