<?xml version="1.0" encoding="UTF-8" standalone="no"?>
<!-- Created with Inkscape (http://www.inkscape.org/) -->

<svg
   xmlns:dc="http://purl.org/dc/elements/1.1/"
   xmlns:cc="http://creativecommons.org/ns#"
   xmlns:rdf="http://www.w3.org/1999/02/22-rdf-syntax-ns#"
   xmlns:svg="http://www.w3.org/2000/svg"
   xmlns="http://www.w3.org/2000/svg"
   version="1.1"
   width="21.03125"
   height="20.96875"
   id="svg6288">
  <defs
     id="defs6290" />
  <metadata
     id="metadata6293">
    <rdf:RDF>
      <cc:Work
         rdf:about="">
        <dc:format>image/svg+xml</dc:format>
        <dc:type
           rdf:resource="http://purl.org/dc/dcmitype/StillImage" />
        <dc:title></dc:title>
      </cc:Work>
    </rdf:RDF>
  </metadata>
  <g
     transform="translate(-267.1717,-650.13426)"
     id="layer1">
    <g
       transform="translate(-105.38857,136.37923)"
       id="layer1-6"
       style="fill:#0d7e85;fill-opacity:1">
      <path
         d="m 383.09152,513.75503 c -5.80553,0 -10.53125,4.67683 -10.53125,10.46875 0,5.79192 4.72572,10.5 10.53125,10.5 5.80553,0 10.5,-4.70808 10.5,-10.5 -10e-4,-5.79103 -4.69536,-10.46875 -10.5,-10.46875 z m 3.5,6.59375 0,6.625 c 0.0276,0.0977 0.0625,0.20878 0.0625,0.3125 0,0.82986 -0.92754,1.5 -2.0625,1.5 -1.13496,0 -2.03125,-0.67014 -2.03125,-1.5 0,-0.82986 0.89629,-1.5 2.03125,-1.5 0.35672,0 0.67536,0.0709 0.96875,0.1875 l 0.0312,-4.1875 -4,0.96875 0.0312,4.1875 c 0.0276,0.0977 0.0312,0.20878 0.0312,0.3125 0,0.82986 -0.92754,1.5 -2.0625,1.5 -1.13496,0 -2.03125,-0.67014 -2.03125,-1.5 0,-0.82986 0.89629,-1.5 2.03125,-1.5 0.34893,0 0.67995,0.0756 0.96875,0.1875 l 0,-4.15625 6.03125,-1.4375 z m -7,6.375 c -0.56138,0 -1.03125,0.21931 -1.03125,0.5 0,0.28069 0.46987,0.53125 1.03125,0.53125 0.56138,0 1,-0.25056 1,-0.53125 -1.2e-4,-0.28065 -0.43871,-0.5 -1,-0.5 z m 5,0.0312 c -0.56138,0 -1.03125,0.21931 -1.03125,0.5 0,0.28069 0.46987,0.53125 1.03125,0.53125 0.56138,0 1,-0.25056 1,-0.53125 -1.2e-4,-0.28065 -0.43871,-0.5 -1,-0.5 z"
         id="path3184"
         style="fill:#0d7e85;fill-opacity:1;stroke:none" />
    </g>
  </g>
</svg>
