<?xml version="1.0" encoding="UTF-8" standalone="no"?>
<!-- Created with Inkscape (http://www.inkscape.org/) -->

<svg
   xmlns:dc="http://purl.org/dc/elements/1.1/"
   xmlns:cc="http://creativecommons.org/ns#"
   xmlns:rdf="http://www.w3.org/1999/02/22-rdf-syntax-ns#"
   xmlns:svg="http://www.w3.org/2000/svg"
   xmlns="http://www.w3.org/2000/svg"
   version="1.1"
   width="21.03125"
   height="20.9375"
   id="svg6288">
  <defs
     id="defs6290" />
  <metadata
     id="metadata6293">
    <rdf:RDF>
      <cc:Work
         rdf:about="">
        <dc:format>image/svg+xml</dc:format>
        <dc:type
           rdf:resource="http://purl.org/dc/dcmitype/StillImage" />
        <dc:title></dc:title>
      </cc:Work>
    </rdf:RDF>
  </metadata>
  <g
     transform="translate(-225.71498,-640.7418)"
     id="layer1">
    <g
       transform="translate(-138.76939,118.84837)"
       id="layer1-3"
       style="fill:#0d7e85;fill-opacity:1">
      <path
         d="m 375.01562,521.89343 c -5.80761,0 -10.53125,4.68702 -10.53125,10.46875 0,5.78173 4.72364,10.46875 10.53125,10.46875 5.80762,0 10.5,-4.68702 10.5,-10.46875 0,-5.78173 -4.69238,-10.46875 -10.5,-10.46875 z m -0.5,5.96875 c 0.15292,-0.0191 0.31239,0 0.46875,0 2.5018,0 4.52957,2.4714 6.5625,4.53125 -2.03293,2.12615 -4.0607,4.5 -6.5625,4.5 -2.5018,0 -4.46706,-2.44014 -6.5,-4.5 1.84373,-1.86896 3.73739,-4.2453 6.03125,-4.53125 z m 0.46875,1 c -2.5018,0 -3.50211,1.55979 -5.46875,3.53125 2.03294,2.05986 2.96695,3.4375 5.46875,3.4375 2.5018,0 3.46707,-1.31135 5.5,-3.4375 -2.03293,-2.05985 -2.9982,-3.53125 -5.5,-3.53125 z m 0.0312,1.03125 c 1.37294,0 2.5,1.12096 2.5,2.5 0,1.37904 -1.12706,2.46875 -2.5,2.46875 -1.37294,0 -2.46875,-1.08971 -2.46875,-2.46875 0,-1.37904 1.09581,-2.5 2.46875,-2.5 z m -0.0312,0.96875 c -0.82987,0 -1.5,0.67013 -1.5,1.5 0,0.82986 0.67013,1.5 1.5,1.5 0.82986,0 1.5,-0.67014 1.5,-1.5 0,-0.82987 -0.67014,-1.5 -1.5,-1.5 z"
         id="path3144"
         style="fill:#0d7e85;fill-opacity:1;stroke:none" />
    </g>
  </g>
</svg>
