<svg width="50" height="50" viewBox="0 0 50 50" fill="none" xmlns="http://www.w3.org/2000/svg">
<path d="M25 3.125C12.8125 3.125 3.125 12.8125 3.125 25C3.125 37.1875 12.8125 46.875 25 46.875C37.1875 46.875 46.875 37.1875 46.875 25C46.875 12.8125 37.1875 3.125 25 3.125ZM25 43.75C14.6875 43.75 6.25 35.3125 6.25 25C6.25 14.6875 14.6875 6.25 25 6.25C35.3125 6.25 43.75 14.6875 43.75 25C43.75 35.3125 35.3125 43.75 25 43.75Z" fill="#666666"/>
<path d="M33.4375 35.9375L25 27.5L16.5625 35.9375L14.0625 33.4375L22.5 25L14.0625 16.5625L16.5625 14.0625L25 22.5L33.4375 14.0625L35.9375 16.5625L27.5 25L35.9375 33.4375L33.4375 35.9375Z" fill="#666666"/>
</svg>
